<?xml version="1.0" encoding="utf-8"?>
<svg xmlns="http://www.w3.org/2000/svg" version="1.1" viewBox="0.00 0.00 694.00 694.00">
  <path fill="#ffffff" d=" M 507.80 1.13 L 573.94 38.38 A 1.16 1.16 0.0 0 1 573.95 40.40 L 508.77 78.02 A 1.16 1.16 0.0 0 1 507.62 78.03 L 441.49 40.79 A 1.16 1.16 0.0 0 1 441.48 38.77 L 506.65 1.14 A 1.16 1.16 0.0 0 1 507.80 1.13 Z"/>
  <path fill="#ffffff" d=" M 587.15 264.78 L 518.81 226.29 A 0.36 0.36 0.0 0 1 518.63 225.98 L 518.63 97.61 A 0.36 0.36 0.0 0 1 518.81 97.30 L 587.15 57.84 A 0.36 0.36 0.0 0 1 587.69 58.15 L 587.69 264.46 A 0.36 0.36 0.0 0 1 587.15 264.78 Z"/>
  <path fill="#ffffff" d=" M 496.24 215.29 L 428.02 177.71 A 0.30 0.30 0.0 0 1 427.86 177.44 L 427.86 58.47 A 0.30 0.30 0.0 0 1 428.31 58.21 L 496.53 96.63 A 0.30 0.30 0.0 0 1 496.68 96.90 L 496.68 215.03 A 0.30 0.30 0.0 0 1 496.24 215.29 Z"/>
  <path fill="#ffffff" d=" M 174.81 231.87 A 0.53 0.53 0.0 0 1 174.79 230.94 L 328.62 146.04 A 0.54 0.52 -44.0 0 1 329.13 146.04 L 396.05 183.73 A 0.48 0.48 0.0 0 1 396.06 184.56 L 319.03 229.03 A 2.50 2.50 0.0 0 0 317.77 231.20 L 317.77 318.09 A 1.58 1.56 75.2 0 1 316.99 319.45 L 251.34 357.35 A 0.64 0.64 0.0 0 1 250.38 356.80 L 250.43 275.10 A 1.87 1.86 29.8 0 0 250.17 274.15 Q 249.72 273.38 247.57 272.17 Q 191.58 240.63 183.16 236.13 Q 182.98 236.04 174.81 231.87 Z"/>
  <path fill="#ffffff" d=" M 407.98 266.56 Q 407.63 268.72 407.63 270.25 Q 407.71 315.65 407.65 356.70 A 0.45 0.45 0.0 0 1 406.97 357.08 Q 398.61 351.94 393.50 349.04 Q 361.90 331.06 341.57 320.03 A 2.04 2.02 14.5 0 1 340.51 318.25 L 340.51 241.58 A 0.58 0.56 76.0 0 1 340.80 241.08 L 417.60 196.73 A 0.85 0.85 0.0 0 1 418.44 196.73 L 575.06 283.01 A 0.61 0.61 0.0 0 1 575.08 284.07 Q 568.44 288.19 567.96 288.46 Q 539.32 304.96 508.10 322.09 A 0.51 0.51 0.0 0 1 507.60 322.09 L 408.53 266.30 A 0.37 0.37 0.0 0 0 407.98 266.56 Z"/>
  <path fill="#ffffff" d=" M 150.10 321.85 L 82.12 283.56 A 0.33 0.33 0.0 0 1 82.12 282.98 L 152.51 244.13 A 0.33 0.33 0.0 0 1 152.83 244.13 L 220.82 282.42 A 0.33 0.33 0.0 0 1 220.82 283.00 L 150.42 321.85 A 0.33 0.33 0.0 0 1 150.10 321.85 Z"/>
  <path fill="#ffffff" d=" M 139.00 493.91 L 70.56 455.36 A 0.33 0.33 0.0 0 1 70.39 455.08 L 70.39 303.42 A 0.33 0.33 0.0 0 1 70.88 303.14 L 139.32 341.68 A 0.33 0.33 0.0 0 1 139.49 341.96 L 139.49 493.63 A 0.33 0.33 0.0 0 1 139.00 493.91 Z"/>
  <path fill="#ffffff" d=" M 229.95 456.05 L 162.15 493.46 A 0.62 0.62 0.0 0 1 161.23 492.92 L 161.23 342.13 A 0.62 0.62 0.0 0 1 161.54 341.59 L 229.34 302.46 A 0.62 0.62 0.0 0 1 230.27 302.99 L 230.27 455.50 A 0.62 0.62 0.0 0 1 229.95 456.05 Z"/>
  <path fill="#ffffff" d=" M 495.85 493.30 L 428.10 455.97 A 0.59 0.59 0.0 0 1 427.79 455.45 L 427.79 303.43 A 0.59 0.59 0.0 0 1 428.67 302.92 L 496.42 341.07 A 0.59 0.59 0.0 0 1 496.72 341.58 L 496.72 492.78 A 0.59 0.59 0.0 0 1 495.85 493.30 Z"/>
  <path fill="#ffffff" d=" M 340.53 690.75 L 340.53 616.88 A 0.92 0.91 -14.4 0 1 341.01 616.08 Q 388.45 589.90 415.47 574.88 Q 448.20 556.68 465.87 547.10 Q 491.05 533.45 516.28 519.30 Q 518.63 517.98 518.63 515.77 Q 518.54 457.81 518.61 342.72 A 0.75 0.74 75.7 0 1 518.99 342.07 L 586.52 303.07 A 0.77 0.77 0.0 0 1 587.67 303.74 L 587.67 556.83 A 0.53 0.53 0.0 0 1 587.39 557.30 L 341.11 691.09 A 0.39 0.39 0.0 0 1 340.53 690.75 Z"/>
  <path fill="#ffffff" d=" M 340.51 591.00 L 340.51 516.20 A 0.30 0.30 0.0 0 1 340.67 515.93 L 416.83 473.90 A 0.30 0.30 0.0 0 1 417.13 473.90 L 484.21 511.68 A 0.30 0.30 0.0 0 1 484.21 512.20 L 340.95 591.26 A 0.30 0.30 0.0 0 1 340.51 591.00 Z"/>
  <path fill="#ffffff" d=" M 317.53 515.91 L 317.53 590.66 A 0.33 0.33 0.0 0 1 317.04 590.95 L 173.76 512.01 A 0.33 0.33 0.0 0 1 173.76 511.43 L 241.53 474.03 A 0.33 0.33 0.0 0 1 241.85 474.03 L 317.36 515.63 A 0.33 0.33 0.0 0 1 317.53 515.91 Z"/>
  <path fill="#ffffff" d=" M 317.49 616.28 L 317.49 690.60 A 0.45 0.45 0.0 0 1 316.83 691.00 L 70.65 557.18 A 0.45 0.45 0.0 0 1 70.41 556.78 L 70.41 480.64 A 0.45 0.45 0.0 0 1 71.08 480.25 L 317.26 615.88 A 0.45 0.45 0.0 0 1 317.49 616.28 Z"/>
</svg>
